# xmcd CD database file
#
# Track frame offsets:
#	150
#	24622
#	45018
#	67987
#	90478
#	109675
#	129020
#	159964
#	180844
#	198789
#
# Disc length: 2939 seconds
#
# Revision: 0
# Processed by: cddbd v1.5.2PL0 Copyright (c) Steve Scherf et al.
# Submitted via: CDex 2.19
#
DISCID=610b790a
DTITLE=Melody Gardot - Currency Of Man
DYEAR=2015
DGENRE=Jazz
TTITLE0=It Gonna Come 
TTITLE1=Preacherman 
TTITLE2=Morning Sun 
TTITLE3=Same To You 
TTITLE4=Don't Misunderstand 
TTITLE5=Don't Talk 
TTITLE6=If Ever I Recall Your Face 
TTITLE7=Bad News 
TTITLE8=She Don't Know 
TTITLE9=Once I Was Loved 
EXTD=YEAR: 2015
EXTT0=
EXTT1=
EXTT2=
EXTT3=
EXTT4=
EXTT5=
EXTT6=
EXTT7=
EXTT8=
EXTT9=
PLAYORDER=
